<?xml version="1.0" encoding="utf-8"?>
<!-- Generator: Adobe Illustrator 24.0.1, SVG Export Plug-In . SVG Version: 6.00 Build 0)  -->
<svg version="1.1" xmlns="http://www.w3.org/2000/svg" xmlns:xlink="http://www.w3.org/1999/xlink" x="0px" y="0px"
	 viewBox="0 0 2000 2000" style="enable-background:new 0 0 2000 2000;" xml:space="preserve">
<style type="text/css">
	.st0{fill:url(#SVGID_1_);}
	.st1{fill:#FFFFFF;}
	.st2{fill:#FEFEFE;}
	.st3{fill:#222222;}
	.st4{fill:#202020;}
</style>
<g id="Layer_2">
	<linearGradient id="SVGID_1_" gradientUnits="userSpaceOnUse" x1="1000.0024" y1="162.4071" x2="1000.0024" y2="1849.6987">
		<stop  offset="0" style="stop-color:#E7E7E7"/>
		<stop  offset="1" style="stop-color:#8B8B8B"/>
	</linearGradient>
	<rect x="0" y="0" class="st0" width="2000" height="2000"/>
</g>
<g id="Layer_1">
	<g id="Layer_3">
		<path class="st1" d="M974.4,478.7l264.5-4.4c0,0,41.6,187.1-128.8,187.1S974.4,478.7,974.4,478.7z"/>
	</g>
	<g>
		<path class="st2" d="M475.3,445.6c0-27.9,0-55.8,0-83.7c0.7,0,1.4-0.1,2.1-0.1c0,27.9,0,55.8,0,83.7
			C476.7,445.6,476,445.6,475.3,445.6z"/>
		<path class="st3" d="M1579.5,734.9c-40.8-55.9-92.2-100.3-152.4-134.5c-25.8-14.7-48.2-31.8-62.7-60.1
			c-21.1-41.3-55.3-69.7-100-84.7c-16.8-5.6-30.1-15.8-37.5-33.2c-11.9-28-23.6-56.2-37.8-83.1c-58.6-110.5-191.8-134.4-265.8-32
			c-10.7,14.8-25.7,23.3-42.3,15.8c-56.2-25.7-115.5-17.3-174-19.2c-28.3-0.9-53.2,5.5-77.5,21.4c-23.4,15.3-49.6,32.8-79.4,16
			c-38.6-21.8-68.1-13.8-64.9,42.3c0.3,6.1,0,12.3,0,18.4c0,0-0.1,0-0.1,0c0,11.3,0,22.5,0,33.8c0,57.4,88.3,102.1,119.3,77
			c31-25.1,63.5-38.6,101.2-41.6c27.9-2.2,59-22.7,83.1,5.5c23.2,27.1,39.8,58.2,42.7,95.8c2.5,31.2-1.1,65.5,13.6,92.8
			c29.6,55.2,46.8,114.7,70.3,172c7,17.2,4,25.9-9.8,30.8c-42.9,15.4-73.2,47.1-104.4,77.6c-42.2,41.4-59.5,95.9-73,150.8
			c-4.5,18.4-3.8,38.7-15,54.7c-33.6,47.9-46.9,101.5-51.9,159c-4.9,55.8,23.8,104,75.5,105.3c45.1,1.2,79.6,21.5,115.1,42.9
			c40.8,24.7,40.7,25.6,26.3,70c-11.1,34.2-2.6,57,27.8,74.2c49.5,28,119.5,8,145.1-43c14.5-29,25.2-59.9,38.8-89.3
			c17.9-38.6,15.8-60.4-14.8-90.6c-16.4-16.2-30.4-34-36.1-55.5c-8.5-32.2-25.6-57.1-52.8-75.3c-20.3-13.6-20.9-30-10-49.9
			c26.2-48,61.2-80,119.5-87.6c30.4-4,55.5-9.3,68.1,23.3c9.4,24.4,32.5,44.7,23.5,75.5c-16.5,56.1-32.2,112.4-47.7,168.7
			c-6.6,24.2-21.8,51.9-8,73.7c33.3,52.5,16.8,105.5,9,158.2c-8.9,60.5,39,129.7,98.3,139.5c27.8,4.6,59.7,12.7,77.1-10.7
			c18.5-24.9,0.4-53.9-13.3-79.5c-27.4-51.5-29.6-101.3,8.6-150.3c12.5-16,21.1-35.6,24.7-57.8c8-49.6,22.2-98.3,30.1-147.9
			c11.2-70.9,34.5-138.8,46.6-209.4c4.5-26.1,15.6-46.7,38.3-63c41.5-29.7,78.3-65,112-103.7C1611.5,872.3,1620,790.5,1579.5,734.9z
			 M1212.5,574.2c-46,83.3-161.2,87.7-213.3,6.8c-14.2-22.2-7.7-49.7-9.4-75c-0.6-8.5,6.1-9.5,12.8-7c5.7,2.1,11.2,4.9,16.9,7.3
			c82.5,35.3,118.3,32.8,196.1-16.5C1215.5,520.7,1227.5,547.2,1212.5,574.2z M1427.9,839.8c-7.1,9.1-15.8,16.6-27.8,16.3
			c-8.6-0.2-10.6-8.1-12-15.4c-5.5-29.5-18.2-45.5-50.1-27.7c-6.9,3.8-13.9,1.9-19.1-4.5c-6.5-8-6.2-17.1-2.3-25.8
			c4.4-9.9,13.4-11.4,27.3-9.9c28.9,8.2,57.9,24.3,82.7,47.8C1432.6,826.3,1433,833.2,1427.9,839.8z"/>
	</g>
</g>
<g id="Layer_4">
	<rect x="-1.2" y="-1.2" class="st4" width="2002.7" height="125.3"/>
	<rect x="-1.4" y="1875.7" class="st4" width="2002.7" height="125.3"/>
	
		<rect x="937.1" y="937.2" transform="matrix(7.044814e-16 1 -1 7.044814e-16 2938.3367 -938.6021)" class="st4" width="2002.7" height="125.3"/>
	
		<rect x="-939.8" y="937.5" transform="matrix(7.044814e-16 1 -1 7.044814e-16 1061.6531 938.6326)" class="st4" width="2002.7" height="125.3"/>
</g>
</svg>
